<?xml version="1.0" standalone="no"?>
<!DOCTYPE svg PUBLIC "-//W3C//DTD SVG 20010904//EN"
 "http://www.w3.org/TR/2001/REC-SVG-20010904/DTD/svg10.dtd">
<svg version="1.0" xmlns="http://www.w3.org/2000/svg"
 width="603.000000pt" height="603.000000pt" viewBox="0 0 603.000000 603.000000"
 preserveAspectRatio="xMidYMid meet">
<metadata>
Created by potrace 1.11, written by Peter Selinger 2001-2013
</metadata>
<g transform="translate(0.000000,603.000000) scale(0.100000,-0.100000)"
fill="#000000" stroke="none">
<path d="M2305 6023 c-80 -21 -151 -108 -162 -199 -20 -169 158 -303 313 -235
97 44 139 108 138 216 0 63 -3 75 -32 117 -18 26 -44 55 -60 66 -48 35 -136
50 -197 35z"/>
<path d="M3576 6023 c-27 -7 -87 -46 -108 -69 -9 -11 -26 -40 -37 -64 -84
-186 114 -383 299 -299 88 40 132 106 136 204 4 92 -38 165 -121 207 -39 20
-131 32 -169 21z"/>
<path d="M982 5370 c-71 -25 -112 -52 -160 -104 -74 -80 -103 -163 -98 -276
11 -271 306 -441 550 -318 64 33 134 105 167 176 91 191 7 420 -187 509 -75
34 -197 40 -272 13z"/>
<path d="M2263 5375 c-102 -31 -190 -109 -240 -211 -24 -52 -28 -70 -28 -154
0 -86 3 -101 32 -161 39 -79 111 -150 191 -187 49 -23 70 -27 152 -27 82 0
103 4 152 27 80 37 152 108 191 187 29 60 32 75 32 161 0 87 -3 101 -32 161
-39 80 -111 150 -191 186 -67 31 -190 40 -259 18z"/>
<path d="M3533 5375 c-102 -31 -194 -113 -241 -213 -23 -49 -27 -70 -27 -152
0 -87 3 -101 32 -161 40 -80 111 -150 191 -187 81 -37 201 -39 289 -5 108 42
194 136 228 248 21 73 13 190 -18 259 -35 76 -107 150 -183 187 -52 26 -77 32
-146 34 -49 2 -100 -2 -125 -10z"/>
<path d="M4817 5380 c-84 -22 -183 -93 -228 -166 -64 -104 -75 -251 -28 -354
117 -251 439 -307 625 -108 177 190 116 496 -121 604 -60 28 -185 40 -248 24z"/>
<path d="M2132 4440 c-177 -46 -333 -172 -410 -330 -128 -261 -79 -549 127
-750 200 -195 508 -234 753 -97 148 82 259 223 305 384 24 88 25 251 1 337
-59 214 -236 394 -443 452 -92 25 -245 27 -333 4z"/>
<path d="M3612 4445 c-139 -30 -288 -126 -372 -239 -92 -126 -128 -238 -125
-392 3 -115 5 -134 30 -205 49 -137 174 -284 300 -351 109 -57 200 -78 325
-74 115 4 189 24 295 79 64 34 200 161 225 212 8 17 17 32 21 35 12 11 50 113
64 172 20 85 14 243 -13 325 -86 269 -339 454 -617 452 -38 0 -98 -7 -133 -14z"/>
<path d="M999 4096 c-103 -27 -199 -111 -247 -214 -23 -49 -26 -70 -26 -152 0
-86 3 -101 32 -161 38 -79 109 -150 190 -187 49 -23 70 -26 152 -26 86 0 101
3 161 32 79 38 150 109 187 190 23 49 27 70 26 152 0 81 -4 104 -26 152 -31
68 -95 140 -156 175 -82 49 -200 64 -293 39z"/>
<path d="M4817 4100 c-84 -22 -183 -93 -228 -166 -64 -104 -75 -251 -28 -354
117 -251 439 -307 625 -108 177 190 116 496 -121 604 -60 28 -185 40 -248 24z"/>
<path d="M251 3953 c-31 -6 -89 -43 -117 -74 -35 -39 -57 -112 -51 -166 8 -69
21 -98 70 -146 114 -115 302 -76 367 75 52 122 -12 264 -139 307 -34 11 -84
12 -130 4z"/>
<path d="M5648 3946 c-52 -19 -83 -40 -111 -78 -70 -95 -62 -211 22 -297 73
-74 171 -92 260 -46 146 73 175 251 61 365 -66 66 -148 86 -232 56z"/>
<path d="M2195 3004 c-86 -13 -217 -66 -280 -114 -59 -45 -138 -133 -175 -195
-61 -105 -84 -189 -84 -315 -1 -143 15 -209 81 -330 38 -68 156 -193 209 -220
16 -8 31 -18 34 -21 12 -15 141 -59 204 -70 63 -10 187 -8 241 5 126 30 230
89 320 180 247 250 245 648 -4 895 -80 81 -170 135 -271 166 -55 16 -218 27
-275 19z"/>
<path d="M3647 3004 c-1 -2 -16 -5 -33 -8 -132 -23 -288 -125 -376 -243 -90
-122 -129 -251 -124 -403 5 -129 16 -172 74 -285 79 -153 255 -284 432 -321
320 -67 648 129 745 446 23 77 28 239 9 320 -56 241 -253 436 -489 485 -59 12
-228 18 -238 9z"/>
<path d="M1013 2821 c-109 -28 -213 -115 -261 -219 -38 -83 -40 -202 -5 -290
62 -154 203 -244 372 -238 268 9 439 295 322 539 -37 77 -109 148 -188 184
-60 28 -179 39 -240 24z"/>
<path d="M4817 2820 c-84 -22 -183 -93 -228 -166 -64 -104 -75 -251 -28 -354
117 -251 439 -307 625 -108 177 190 116 496 -121 604 -60 28 -185 40 -248 24z"/>
<path d="M242 2667 c-112 -41 -178 -177 -140 -288 19 -57 68 -110 126 -136
179 -83 368 86 311 278 -35 116 -181 188 -297 146z"/>
<path d="M5648 2666 c-52 -19 -83 -40 -111 -78 -70 -95 -62 -211 22 -297 73
-74 171 -92 260 -46 146 73 175 251 61 365 -66 66 -148 86 -232 56z"/>
<path d="M982 1530 c-71 -25 -112 -52 -160 -104 -74 -80 -103 -163 -98 -276
11 -271 306 -441 550 -318 64 33 134 105 167 176 91 191 7 420 -187 509 -75
34 -197 40 -272 13z"/>
<path d="M2263 1535 c-102 -31 -190 -109 -240 -211 -24 -52 -28 -70 -28 -154
0 -86 3 -101 32 -161 99 -202 345 -278 538 -165 58 34 122 107 153 174 23 49
27 70 27 152 -1 81 -5 103 -27 152 -37 79 -107 151 -185 190 -54 26 -78 32
-146 34 -46 1 -100 -3 -124 -11z"/>
<path d="M3656 1539 c-101 -25 -206 -115 -254 -217 -23 -49 -27 -70 -27 -152
0 -86 3 -101 32 -161 99 -202 345 -278 538 -165 58 34 122 107 153 174 23 49
27 70 27 152 0 82 -4 103 -27 152 -36 78 -108 152 -182 188 -49 24 -79 32
-141 35 -44 2 -98 0 -119 -6z"/>
<path d="M4817 1540 c-84 -22 -183 -93 -228 -166 -64 -104 -75 -251 -28 -354
38 -81 108 -153 187 -192 61 -30 74 -33 162 -33 87 0 101 3 161 32 292 144
288 555 -6 689 -60 28 -185 40 -248 24z"/>
<path d="M2292 447 c-55 -21 -103 -67 -129 -125 -58 -125 7 -269 141 -312 76
-24 184 6 238 67 36 40 60 113 55 167 -6 64 -18 94 -52 135 -57 66 -173 98
-253 68z"/>
<path d="M3675 448 c-54 -19 -107 -70 -133 -126 -31 -69 -27 -138 14 -211 68
-121 247 -145 353 -48 36 33 71 115 71 167 0 52 -35 134 -71 167 -59 54 -162
76 -234 51z"/>
</g>
</svg>
